#!OML:ASF H:\ManfredETheater\Project 1\Capture day 1\Session 1\subject.ASF
:FULLY-SPECIFIED
:DEGREES
198
root 18.6738 16.2504 -37.5864 -188.178 32.5343 -176.5
lowerback 9.72713 -2.26701 -0.347828
upperback -0.713031 -2.70569 3.86595
thorax -6.00612 -1.20532 4.65581
lowerneck -17.4945 -0.865074 -1.81921
upperneck 20.361 0.430492 -3.49907
head 9.32303 -0.219361 -0.828641
rclavicle 5.36719e-014 3.65764e-014
rhumerus -44.9897 7.7712 -82.1989
rradius 83.135
rwrist -4.38641
rhand -24.0979 10.6297
rfingers 7.12502
rthumb 2.38284 -19.3367
lclavicle 5.36719e-014 3.65764e-014
lhumerus -36.5891 -10.7003 97.9962
lradius 87.2296
lwrist -3.84611
lhand -25.827 -8.69057
lfingers 7.12502
lthumb 0.712814 21.288
rfemur -29.4457 -8.40742 23.0545
rtibia 54.5393
rfoot -9.70626 -12.1798
rtoes -14.1595
lfemur -13.8783 -6.71252 -16.6169
ltibia 87.2672
lfoot -4.33378 -9.09481
ltoes 4.69703
199
root 18.7877 16.2988 -37.7167 -187.783 32.3135 -176.013
lowerback 9.63452 -2.10294 -0.0221454
upperback -0.744352 -2.42967 4.01458
thorax -6.01674 -1.07216 4.58588
lowerneck -17.4098 -0.904975 -1.78946
upperneck 20.5239 0.389057 -3.52235
head 9.36389 -0.235418 -0.84703
rclavicle -3.97569e-015 1.66979e-014
rhumerus -43.8019 7.40707 -81.8612
rradius 82.4412
rwrist -3.98992
rhand -24.4109 10.6114
rfingers 7.12502
rthumb 2.08054 -19.3582
lclavicle -3.97569e-015 1.66979e-014
lhumerus -36.6648 -10.2442 98.0665
lradius 83.9061
lwrist -3.02467
lhand -26.3469 -8.35612
lfingers 7.12502
lthumb 0.210683 21.6235
rfemur -28.6794 -8.35542 23.5116
rtibia 54.2455
rfoot -10.2052 -12.629
rtoes -14.7269
lfemur -14.8881 -6.34236 -16.3315
ltibia 87.3581
lfoot -5.45557 -9.34545
ltoes 3.94511
200
root 18.8968 16.3502 -37.8456 -187.398 32.1609 -175.556
lowerback 9.53486 -1.88773 0.339787
upperback -0.784243 -2.08285 4.14639
thorax -6.03798 -0.905483 4.46765
lowerneck -17.3337 -0.984374 -1.81942
upperneck 20.7274 0.307201 -3.51848
head 9.42024 -0.271689 -0.851698
rclavicle -2.3556e-014 1.51076e-014
rhumerus -42.8416 6.88109 -81.5362
rradius 82.2034
rwrist -3.88537
rhand -24.5809 10.5924
rfingers 7.12502
rthumb 1.91637 -19.3788
lclavicle -2.3556e-014 1.51076e-014
lhumerus -36.7351 -9.95076 98.1194
lradius 80.5525
lwrist -2.0492
lhand -26.7198 -8.20163
lfingers 7.12502
lthumb -0.149447 21.7781
rfemur -27.8857 -8.20706 23.9537
rtibia 53.844
rfoot -10.6 -13.0966
rtoes -15.4121
lfemur -15.8794 -5.87642 -16.0756
ltibia 87.2549
lfoot -6.51166 -9.62076
ltoes 3.05021
201
root 19.0014 16.4042 -37.9727 -187.02 32.0332 -175.134
lowerback 9.44203 -1.65143 0.710741
upperback -0.834141 -1.70859 4.25932
thorax -6.07367 -0.726054 4.32124
lowerneck -17.3012 -1.07978 -1.84802
upperneck 20.9726 0.212465 -3.53529
head 9.4994 -0.316542 -0.866063
rclavicle 4.83047e-014 1.43125e-014
rhumerus -42.0737 6.29282 -81.2504
rradius 82.3638
rwrist -4.0531
rhand -24.6647 10.5701
rfingers 7.12502
rthumb 1.83542 -19.4018
lclavicle 4.83047e-014 1.43125e-014
lhumerus -36.8029 -9.74825 98.1239
lradius 77.2142
lwrist -1.04994
lhand -26.8826 -8.18599
lfingers 7.12502
lthumb -0.306702 21.7935
rfemur -27.0808 -7.99278 24.369
rtibia 53.3564
rfoot -10.9192 -13.5887
rtoes -16.1071
lfemur -16.8715 -5.38119 -15.8674
ltibia 86.9774
lfoot -7.52637 -9.85503
ltoes 2.04389
202
root 19.1024 16.4606 -38.0985 -186.655 31.877 -174.766
lowerback 9.3409 -1.4096 1.07651
upperback -0.898716 -1.33065 4.34681
thorax -6.11749 -0.545765 4.15062
lowerneck -17.3135 -1.19156 -1.85602
upperneck 21.2617 0.108187 -3.60651
head 9.60265 -0.370471 -0.904781
rclavicle -1.61016e-014 7.4743e-014
rhumerus -41.4322 5.64891 -80.9976
rradius 82.7988
rwrist -4.39409
rhand -24.6953 10.5211
rfingers 7.12502
rthumb 1.80583 -19.451
lclavicle -1.61016e-014 7.4743e-014
lhumerus -36.8771 -9.63577 98.0903
lradius 73.9085
lwrist -0.156336
lhand -26.8316 -8.24242
lfingers 7.12502
lthumb -0.257473 21.7372
rfemur -26.275 -7.7633 24.7312
rtibia 52.8027
rfoot -11.1832 -14.1005
rtoes -16.7777
lfemur -17.8685 -4.93082 -15.7406
ltibia 86.531
lfoot -8.52014 -9.99202
ltoes 1.02554
203
root 19.1999 16.5189 -38.2226 -186.326 31.6561 -174.45
lowerback 9.26157 -1.19322 1.42297
upperback -0.961713 -0.991811 4.40444
thorax -6.16618 -0.385591 3.96581
lowerneck -17.374 -1.29531 -1.83234
upperneck 21.5571 0.0142108 -3.70393
head 9.71745 -0.420752 -0.957407
rclavicle -6.75868e-015 1.35174e-014
rhumerus -40.8489 5.03304 -80.8038
rradius 83.418
rwrist -4.82973
rhand -24.7105 10.4516
rfingers 7.12502
rthumb 1.79116 -19.5206
lclavicle -6.75868e-015 1.35174e-014
lhumerus -36.953 -9.52588 97.9755
lradius 70.6722
lwrist 0.469122
lhand -26.5737 -8.32123
lfingers 7.12502
lthumb -0.00831122 21.6585
rfemur -25.4477 -7.55574 25.0341
rtibia 52.1962
rfoot -11.4291 -14.6308
rtoes -17.2922
lfemur -18.8466 -4.57035 -15.6973
ltibia 85.9208
lfoot -9.50742 -10.0133
ltoes 0.0981424
204
root 19.2946 16.5791 -38.3461 -186.043 31.3422 -174.19
lowerback 9.19044 -1.00831 1.75885
upperback -1.02607 -0.700088 4.42729
thorax -6.21526 -0.250092 3.75736
lowerneck -17.4091 -1.39527 -1.82313
upperneck 21.8151 -0.079339 -3.77821
head 9.81454 -0.468863 -0.999361
rclavicle -5.04913e-014 -6.44062e-014
rhumerus -40.294 4.44378 -80.6571
rradius 84.1277
rwrist -5.28547
rhand -24.7705 10.3313
rfingers 7.12502
rthumb 1.7332 -19.6414
lclavicle -5.04913e-014 -6.44062e-014
lhumerus -37.0527 -9.41369 97.7901
lradius 67.5101
lwrist 0.71318
lhand -26.1518 -8.38475
lfingers 7.12502
lthumb 0.399085 21.5946
rfemur -24.5876 -7.40509 25.2683
rtibia 51.5472
rfoot -11.6644 -15.1735
rtoes -17.6881
lfemur -19.7884 -4.33001 -15.7392
ltibia 85.1445
lfoot -10.485 -9.92001
ltoes -0.625687
205
root 19.3869 16.6399 -38.4669 -185.777 30.9256 -173.968
lowerback 9.13554 -0.875242 2.06564
upperback -1.09133 -0.483918 4.42133
thorax -6.2677 -0.152476 3.54641
lowerneck -17.4532 -1.47107 -1.793
upperneck 22.0296 -0.154298 -3.83443
head 9.89813 -0.505168 -1.03608
rclavicle 7.35503e-014 -6.36111e-014
rhumerus -39.6971 3.93187 -80.5859
rradius 84.8491
rwrist -5.72016
rhand -24.8687 10.1962
rfingers 7.12502
rthumb 1.63836 -19.7773
lclavicle 7.35503e-014 -6.36111e-014
lhumerus -37.1644 -9.21471 97.4862
lradius 64.4404
lwrist 0.468806
lhand -25.6201 -8.43003
lfingers 7.12502
lthumb 0.912665 21.5478
rfemur -23.7317 -7.31211 25.462
rtibia 50.8627
rfoot -11.887 -15.7376
rtoes -17.9413
lfemur -20.7292 -4.22827 -15.833
ltibia 84.2142
lfoot -11.4257 -9.73322
ltoes -1.113
